<?xml version="1.0" encoding="UTF-8" standalone="no" ?>
<COLLADA xmlns="http://www.collada.org/2005/11/COLLADASchema" version="1.4.1">
    <asset>
        <contributor>
            <authoring_tool>SketchUp 26.2.0</authoring_tool>
        </contributor>
        <created>2026-08-30T08:08:05Z</created>
        <modified>2026-08-30T08:08:05Z</modified>
        <unit meter="0.0254" name="inch"/>
        <up_axis>Z_UP</up_axis>
    </asset>
    <library_cameras>
        <camera id="ID1" name="skp_camera_Last_Saved_SketchUp_View">
            <optics>
                <technique_common>
                    <perspective>
                        <yfov>35</yfov>
                        <aspect_ratio>0</aspect_ratio>
                        <znear>1</znear>
                        <zfar>1000</zfar>
                    </perspective>
                </technique_common>
            </optics>
        </camera>
    </library_cameras>
    <library_visual_scenes>
        <visual_scene id="ID2">
            <node name="SketchUp">
                <instance_geometry url="#ID75">
                    <bind_material>
                        <technique_common>
                            <instance_material symbol="Material2" target="#ID6">
                                <bind_vertex_input semantic="UVSET0" input_semantic="TEXCOORD" input_set="0"/>
                            </instance_material>
                        </technique_common>
                    </bind_material>
                </instance_geometry>
                <instance_geometry url="#ID81">
                    <bind_material>
                        <technique_common>
                            <instance_material symbol="Material2" target="#ID6">
                                <bind_vertex_input semantic="UVSET0" input_semantic="TEXCOORD" input_set="0"/>
                            </instance_material>
                        </technique_common>
                    </bind_material>
                </instance_geometry>
                <instance_geometry url="#ID87">
                    <bind_material>
                        <technique_common>
                            <instance_material symbol="Material2" target="#ID42">
                                <bind_vertex_input semantic="UVSET0" input_semantic="TEXCOORD" input_set="0"/>
                            </instance_material>
                        </technique_common>
                    </bind_material>
                </instance_geometry>
                <node name="skp_camera_Last_Saved_SketchUp_View">
                    <matrix>0.9967633 -0.07247027 0.03479936 256.3073 0.08039238 0.8985392 -0.4314678 -300.2078 6.938894e-18 0.4328688 0.9014569 701.8878 0 0 0 1</matrix>
                    <instance_camera url="#ID1"/>
                </node>
                <node id="ID3" name="Speaker_shelf__hardwood_">
                    <matrix>1 0 0 3.937008 0 1 0 174.0157 0 0 1 38.18898 0 0 0 1</matrix>
                    <instance_geometry url="#ID4">
                        <bind_material>
                            <technique_common>
                                <instance_material symbol="Material2" target="#ID6">
                                    <bind_vertex_input semantic="UVSET0" input_semantic="TEXCOORD" input_set="0"/>
                                </instance_material>
                            </technique_common>
                        </bind_material>
                    </instance_geometry>
                </node>
                <node id="ID12" name="Speaker_L">
                    <matrix>1 0 0 3.937008 0 1 0 174.0157 0 0 1 39.96063 0 0 0 1</matrix>
                    <instance_geometry url="#ID13">
                        <bind_material>
                            <technique_common>
                                <instance_material symbol="Material2" target="#ID6">
                                    <bind_vertex_input semantic="UVSET0" input_semantic="TEXCOORD" input_set="0"/>
                                </instance_material>
                            </technique_common>
                        </bind_material>
                    </instance_geometry>
                </node>
                <node id="ID19" name="Speaker_R">
                    <matrix>1 0 0 85.43307 0 1 0 174.0157 0 0 1 39.96063 0 0 0 1</matrix>
                    <instance_geometry url="#ID20">
                        <bind_material>
                            <technique_common>
                                <instance_material symbol="Material2" target="#ID6">
                                    <bind_vertex_input semantic="UVSET0" input_semantic="TEXCOORD" input_set="0"/>
                                </instance_material>
                            </technique_common>
                        </bind_material>
                    </instance_geometry>
                </node>
                <node id="ID26" name="Desk">
                    <matrix>1 0 0 13.85827 0 1 0 68.89764 0 0 1 28.14961 0 0 0 1</matrix>
                    <instance_geometry url="#ID27">
                        <bind_material>
                            <technique_common>
                                <instance_material symbol="Material2" target="#ID6">
                                    <bind_vertex_input semantic="UVSET0" input_semantic="TEXCOORD" input_set="0"/>
                                </instance_material>
                            </technique_common>
                        </bind_material>
                    </instance_geometry>
                </node>
                <node id="ID33" name="Door">
                    <matrix>1 0 0 31.89852 0 1 0 10.86816 0 0 1 0.1968504 0 0 0 1</matrix>
                    <instance_geometry url="#ID34">
                        <bind_material>
                            <technique_common>
                                <instance_material symbol="Material2" target="#ID6">
                                    <bind_vertex_input semantic="UVSET0" input_semantic="TEXCOORD" input_set="0"/>
                                </instance_material>
                            </technique_common>
                        </bind_material>
                    </instance_geometry>
                </node>
                <node id="ID40" name="Window_single_glazed_hardwood_frame">
                    <matrix>1 0 0 2.842171e-14 0 1 0 69.09449 0 0 1 35.43307 0 0 0 1</matrix>
                    <instance_geometry url="#ID41">
                        <bind_material>
                            <technique_common>
                                <instance_material symbol="Material2" target="#ID42">
                                    <bind_vertex_input semantic="UVSET0" input_semantic="TEXCOORD" input_set="0"/>
                                </instance_material>
                            </technique_common>
                        </bind_material>
                    </instance_geometry>
                </node>
                <node id="ID47" name="Door">
                    <matrix>1 0 0 40.20885 0 1 0 -19.98142 0 0 1 0 0 0 0 1</matrix>
                    <instance_geometry url="#ID48">
                        <bind_material>
                            <technique_common>
                                <instance_material symbol="Material2" target="#ID6">
                                    <bind_vertex_input semantic="UVSET0" input_semantic="TEXCOORD" input_set="0"/>
                                </instance_material>
                            </technique_common>
                        </bind_material>
                    </instance_geometry>
                </node>
                <node id="ID54" name="Door">
                    <matrix>1 0 0 111.0236 0 1 0 51.1811 0 0 1 0.1968504 0 0 0 1</matrix>
                    <instance_geometry url="#ID55">
                        <bind_material>
                            <technique_common>
                                <instance_material symbol="Material2" target="#ID6">
                                    <bind_vertex_input semantic="UVSET0" input_semantic="TEXCOORD" input_set="0"/>
                                </instance_material>
                            </technique_common>
                        </bind_material>
                    </instance_geometry>
                </node>
                <node id="ID61" name="Listening_position">
                    <matrix>1 0 0 43.30709 0 1 0 145.6693 0 0 1 45.27559 0 0 0 1</matrix>
                    <instance_geometry url="#ID62">
                        <bind_material>
                            <technique_common>
                                <instance_material symbol="Material2" target="#ID6">
                                    <bind_vertex_input semantic="UVSET0" input_semantic="TEXCOORD" input_set="0"/>
                                </instance_material>
                            </technique_common>
                        </bind_material>
                    </instance_geometry>
                </node>
                <node id="ID68" name="Walk-in_shower">
                    <matrix>1 0 0 100.3937 0 1 0 111.811 0 0 1 0 0 0 0 1</matrix>
                    <instance_geometry url="#ID69">
                        <bind_material>
                            <technique_common>
                                <instance_material symbol="Material2" target="#ID6">
                                    <bind_vertex_input semantic="UVSET0" input_semantic="TEXCOORD" input_set="0"/>
                                </instance_material>
                            </technique_common>
                        </bind_material>
                    </instance_geometry>
                </node>
            </node>
        </visual_scene>
    </library_visual_scenes>
    <library_geometries>
        <geometry id="ID4">
            <mesh>
                <source id="ID7">
                    <float_array id="ID10" count="72">92.51969 11.81102 0 0 0 0 0 11.81102 0 92.51969 0 0 0 11.81102 1.181102 92.51969 11.81102 0 0 11.81102 0 92.51969 11.81102 1.181102 92.51969 11.81102 0 92.51969 0 1.181102 92.51969 0 0 92.51969 11.81102 1.181102 92.51969 0 1.181102 0 0 0 92.51969 0 0 0 0 1.181102 0 11.81102 1.181102 0 0 0 0 0 1.181102 0 11.81102 0 92.51969 0 1.181102 0 11.81102 1.181102 0 0 1.181102 92.51969 11.81102 1.181102</float_array>
                    <technique_common>
                        <accessor count="24" source="#ID10" stride="3">
                            <param name="X" type="float"/>
                            <param name="Y" type="float"/>
                            <param name="Z" type="float"/>
                        </accessor>
                    </technique_common>
                </source>
                <source id="ID8">
                    <float_array id="ID11" count="72">0 0 -1 0 0 -1 0 0 -1 0 0 -1 0 1 0 0 1 0 0 1 0 0 1 0 1 0 0 1 0 0 1 0 0 1 0 0 0 -1 0 0 -1 0 0 -1 0 0 -1 0 -1 0 0 -1 0 0 -1 0 0 -1 0 0 0 0 1 0 0 1 0 0 1 0 0 1</float_array>
                    <technique_common>
                        <accessor count="24" source="#ID11" stride="3">
                            <param name="X" type="float"/>
                            <param name="Y" type="float"/>
                            <param name="Z" type="float"/>
                        </accessor>
                    </technique_common>
                </source>
                <vertices id="ID9">
                    <input semantic="POSITION" source="#ID7"/>
                    <input semantic="NORMAL" source="#ID8"/>
                </vertices>
                <triangles count="12" material="Material2">
                    <input offset="0" semantic="VERTEX" source="#ID9"/>
                    <p>0 1 2 1 0 3 4 5 6 5 4 7 8 9 10 9 8 11 12 13 14 13 12 15 16 17 18 17 16 19 20 21 22 21 20 23</p>
                </triangles>
            </mesh>
        </geometry>
        <geometry id="ID13">
            <mesh>
                <source id="ID14">
                    <float_array id="ID17" count="72">0 11.81102 16.92913 0 0 0 0 0 16.92913 0 11.81102 0 11.02362 11.81102 0 0 0 0 0 11.81102 0 11.02362 0 0 11.02362 0 16.92913 0 0 0 11.02362 0 0 0 0 16.92913 11.02362 0 16.92913 0 11.81102 16.92913 0 0 16.92913 11.02362 11.81102 16.92913 0 11.81102 16.92913 11.02362 11.81102 0 0 11.81102 0 11.02362 11.81102 16.92913 11.02362 11.81102 0 11.02362 0 16.92913 11.02362 0 0 11.02362 11.81102 16.92913</float_array>
                    <technique_common>
                        <accessor count="24" source="#ID17" stride="3">
                            <param name="X" type="float"/>
                            <param name="Y" type="float"/>
                            <param name="Z" type="float"/>
                        </accessor>
                    </technique_common>
                </source>
                <source id="ID15">
                    <float_array id="ID18" count="72">-1 -0 -0 -1 -0 -0 -1 -0 -0 -1 -0 -0 0 0 -1 0 0 -1 0 0 -1 0 0 -1 0 -1 0 0 -1 0 0 -1 0 0 -1 0 0 0 1 0 0 1 0 0 1 0 0 1 0 1 0 0 1 0 0 1 0 0 1 0 1 0 0 1 0 0 1 0 0 1 0 0</float_array>
                    <technique_common>
                        <accessor count="24" source="#ID18" stride="3">
                            <param name="X" type="float"/>
                            <param name="Y" type="float"/>
                            <param name="Z" type="float"/>
                        </accessor>
                    </technique_common>
                </source>
                <vertices id="ID16">
                    <input semantic="POSITION" source="#ID14"/>
                    <input semantic="NORMAL" source="#ID15"/>
                </vertices>
                <triangles count="12" material="Material2">
                    <input offset="0" semantic="VERTEX" source="#ID16"/>
                    <p>0 1 2 1 0 3 4 5 6 5 4 7 8 9 10 9 8 11 12 13 14 13 12 15 16 17 18 17 16 19 20 21 22 21 20 23</p>
                </triangles>
            </mesh>
        </geometry>
        <geometry id="ID20">
            <mesh>
                <source id="ID21">
                    <float_array id="ID24" count="72">0 11.81102 16.92913 0 0 0 0 0 16.92913 0 11.81102 0 11.02362 11.81102 0 0 0 0 0 11.81102 0 11.02362 0 0 11.02362 0 16.92913 0 0 0 11.02362 0 0 0 0 16.92913 11.02362 0 16.92913 0 11.81102 16.92913 0 0 16.92913 11.02362 11.81102 16.92913 0 11.81102 16.92913 11.02362 11.81102 0 0 11.81102 0 11.02362 11.81102 16.92913 11.02362 11.81102 0 11.02362 0 16.92913 11.02362 0 0 11.02362 11.81102 16.92913</float_array>
                    <technique_common>
                        <accessor count="24" source="#ID24" stride="3">
                            <param name="X" type="float"/>
                            <param name="Y" type="float"/>
                            <param name="Z" type="float"/>
                        </accessor>
                    </technique_common>
                </source>
                <source id="ID22">
                    <float_array id="ID25" count="72">-1 -0 -0 -1 -0 -0 -1 -0 -0 -1 -0 -0 0 0 -1 0 0 -1 0 0 -1 0 0 -1 0 -1 0 0 -1 0 0 -1 0 0 -1 0 0 0 1 0 0 1 0 0 1 0 0 1 0 1 0 0 1 0 0 1 0 0 1 0 1 0 0 1 0 0 1 0 0 1 0 0</float_array>
                    <technique_common>
                        <accessor count="24" source="#ID25" stride="3">
                            <param name="X" type="float"/>
                            <param name="Y" type="float"/>
                            <param name="Z" type="float"/>
                        </accessor>
                    </technique_common>
                </source>
                <vertices id="ID23">
                    <input semantic="POSITION" source="#ID21"/>
                    <input semantic="NORMAL" source="#ID22"/>
                </vertices>
                <triangles count="12" material="Material2">
                    <input offset="0" semantic="VERTEX" source="#ID23"/>
                    <p>0 1 2 1 0 3 4 5 6 5 4 7 8 9 10 9 8 11 12 13 14 13 12 15 16 17 18 17 16 19 20 21 22 21 20 23</p>
                </triangles>
            </mesh>
        </geometry>
        <geometry id="ID27">
            <mesh>
                <source id="ID28">
                    <float_array id="ID31" count="108">0 117.5197 0.7874016 0 86.61417 7.105427e-15 0 86.61417 0.7874016 0 117.5197 7.105427e-15 86.53543 117.5197 0 0 86.61417 7.105427e-15 0 117.5197 7.105427e-15 57.00787 86.61417 7.105427e-15 57.00787 0 0 86.53543 0 0 57.00787 86.61417 0.7874016 0 86.61417 7.105427e-15 57.00787 86.61417 7.105427e-15 0 86.61417 0.7874016 86.53543 0 0.7874016 57.00787 86.61417 0.7874016 57.00787 0 0.7874016 0 117.5197 0.7874016 0 86.61417 0.7874016 86.53543 117.5197 0.7874016 0 117.5197 7.105427e-15 86.53543 117.5197 0.7874016 86.53543 117.5197 0 0 117.5197 0.7874016 57.00787 86.61417 0.7874016 57.00787 0 0 57.00787 0 0.7874016 57.00787 86.61417 7.105427e-15 86.53543 117.5197 0 86.53543 0 0.7874016 86.53543 0 0 86.53543 117.5197 0.7874016 86.53543 0 0.7874016 57.00787 0 0 86.53543 0 0 57.00787 0 0.7874016</float_array>
                    <technique_common>
                        <accessor count="36" source="#ID31" stride="3">
                            <param name="X" type="float"/>
                            <param name="Y" type="float"/>
                            <param name="Z" type="float"/>
                        </accessor>
                    </technique_common>
                </source>
                <source id="ID29">
                    <float_array id="ID32" count="108">-1 0 0 -1 0 0 -1 0 0 -1 0 0 -5.787256e-17 3.118709e-17 -1 -5.787256e-17 3.118709e-17 -1 -5.787256e-17 3.118709e-17 -1 -5.787256e-17 3.118709e-17 -1 -5.787256e-17 3.118709e-17 -1 -5.787256e-17 3.118709e-17 -1 0 -1 0 0 -1 0 0 -1 0 0 -1 0 0 0 1 0 0 1 0 0 1 0 0 1 0 0 1 0 0 1 0 1 0 0 1 0 0 1 0 0 1 0 -1 0 0 -1 0 0 -1 0 0 -1 0 0 1 0 0 1 0 0 1 0 0 1 0 0 0 -1 0 0 -1 0 0 -1 0 0 -1 0</float_array>
                    <technique_common>
                        <accessor count="36" source="#ID32" stride="3">
                            <param name="X" type="float"/>
                            <param name="Y" type="float"/>
                            <param name="Z" type="float"/>
                        </accessor>
                    </technique_common>
                </source>
                <vertices id="ID30">
                    <input semantic="POSITION" source="#ID28"/>
                    <input semantic="NORMAL" source="#ID29"/>
                </vertices>
                <triangles count="20" material="Material2">
                    <input offset="0" semantic="VERTEX" source="#ID30"/>
                    <p>0 1 2 1 0 3 4 5 6 5 4 7 7 4 8 8 4 9 10 11 12 11 10 13 14 15 16 15 17 18 17 15 19 19 15 14 20 21 22 21 20 23 24 25 26 25 24 27 28 29 30 29 28 31 32 33 34 33 32 35</p>
                </triangles>
            </mesh>
        </geometry>
        <geometry id="ID34">
            <mesh>
                <source id="ID35">
                    <float_array id="ID38" count="72">31.0936 3.305064 73.4252 0.167345 0 0 31.0936 3.305064 0 0.167345 0 73.4252 0.167345 0 73.4252 30.92626 4.87095 73.4252 0 1.565887 73.4252 31.0936 3.305064 73.4252 0 1.565887 73.4252 0.167345 0 0 0.167345 0 73.4252 0 1.565887 0 30.92626 4.87095 0 0.167345 0 0 0 1.565887 0 31.0936 3.305064 0 30.92626 4.87095 0 31.0936 3.305064 73.4252 31.0936 3.305064 0 30.92626 4.87095 73.4252 0 1.565887 73.4252 30.92626 4.87095 0 0 1.565887 0 30.92626 4.87095 73.4252</float_array>
                    <technique_common>
                        <accessor count="24" source="#ID38" stride="3">
                            <param name="X" type="float"/>
                            <param name="Y" type="float"/>
                            <param name="Z" type="float"/>
                        </accessor>
                    </technique_common>
                </source>
                <source id="ID36">
                    <float_array id="ID39" count="72">0.1062641 -0.9943379 0 0.1062641 -0.9943379 0 0.1062641 -0.9943379 0 0.1062641 -0.9943379 0 0 0 1 0 0 1 0 0 1 0 0 1 -0.9943379 -0.1062641 0 -0.9943379 -0.1062641 0 -0.9943379 -0.1062641 0 -0.9943379 -0.1062641 0 0 0 -1 0 0 -1 0 0 -1 0 0 -1 0.9943379 0.1062641 0 0.9943379 0.1062641 0 0.9943379 0.1062641 0 0.9943379 0.1062641 0 -0.1062641 0.9943379 0 -0.1062641 0.9943379 0 -0.1062641 0.9943379 0 -0.1062641 0.9943379 0</float_array>
                    <technique_common>
                        <accessor count="24" source="#ID39" stride="3">
                            <param name="X" type="float"/>
                            <param name="Y" type="float"/>
                            <param name="Z" type="float"/>
                        </accessor>
                    </technique_common>
                </source>
                <vertices id="ID37">
                    <input semantic="POSITION" source="#ID35"/>
                    <input semantic="NORMAL" source="#ID36"/>
                </vertices>
                <triangles count="12" material="Material2">
                    <input offset="0" semantic="VERTEX" source="#ID37"/>
                    <p>0 1 2 1 0 3 4 5 6 5 4 7 8 9 10 9 8 11 12 13 14 13 12 15 16 17 18 17 16 19 20 21 22 21 20 23</p>
                </triangles>
            </mesh>
        </geometry>
        <geometry id="ID41">
            <mesh>
                <source id="ID44">
                    <float_array id="ID46" count="12">0 58.46457 0 0 58.46457 28.93701 0 0 0 0 0 28.93701</float_array>
                    <technique_common>
                        <accessor count="4" source="#ID46" stride="3">
                            <param name="X" type="float"/>
                            <param name="Y" type="float"/>
                            <param name="Z" type="float"/>
                        </accessor>
                    </technique_common>
                </source>
                <vertices id="ID45">
                    <input semantic="POSITION" source="#ID44"/>
                </vertices>
                <lines count="4" material="Material2">
                    <input offset="0" semantic="VERTEX" source="#ID45"/>
                    <p>1 0 0 2 2 3 3 1</p>
                </lines>
            </mesh>
        </geometry>
        <geometry id="ID48">
            <mesh>
                <source id="ID49">
                    <float_array id="ID52" count="60">0 1.232454 59.05512 23.57068 19.98142 0 0 1.232454 0 23.57068 19.98142 59.05512 0.980338 0 59.05512 23.57068 19.98142 59.05512 0 1.232454 59.05512 24.55102 18.74896 59.05512 23.57068 19.98142 0 0.980338 0 0 0 1.232454 0 24.55102 18.74896 0 0 1.232454 59.05512 0.980338 0 0 0.980338 0 59.05512 0 1.232454 0 24.55102 18.74896 59.05512 0.980338 0 0 24.55102 18.74896 0 0.980338 0 59.05512</float_array>
                    <technique_common>
                        <accessor count="20" source="#ID52" stride="3">
                            <param name="X" type="float"/>
                            <param name="Y" type="float"/>
                            <param name="Z" type="float"/>
                        </accessor>
                    </technique_common>
                </source>
                <source id="ID50">
                    <float_array id="ID53" count="60">-0.6225146 0.7826082 0 -0.6225146 0.7826082 0 -0.6225146 0.7826082 0 -0.6225146 0.7826082 0 0 0 1 0 0 1 0 0 1 0 0 1 0 0 -1 0 0 -1 0 0 -1 0 0 -1 -0.7826082 -0.6225146 -0 -0.7826082 -0.6225146 -0 -0.7826082 -0.6225146 -0 -0.7826082 -0.6225146 -0 0.6225146 -0.7826082 0 0.6225146 -0.7826082 0 0.6225146 -0.7826082 0 0.6225146 -0.7826082 0</float_array>
                    <technique_common>
                        <accessor count="20" source="#ID53" stride="3">
                            <param name="X" type="float"/>
                            <param name="Y" type="float"/>
                            <param name="Z" type="float"/>
                        </accessor>
                    </technique_common>
                </source>
                <vertices id="ID51">
                    <input semantic="POSITION" source="#ID49"/>
                    <input semantic="NORMAL" source="#ID50"/>
                </vertices>
                <triangles count="10" material="Material2">
                    <input offset="0" semantic="VERTEX" source="#ID51"/>
                    <p>0 1 2 1 0 3 4 5 6 5 4 7 8 9 10 9 8 11 12 13 14 13 12 15 16 17 18 17 16 19</p>
                </triangles>
            </mesh>
        </geometry>
        <geometry id="ID55">
            <mesh>
                <source id="ID56">
                    <float_array id="ID59" count="60">0 25.91257 72.24409 1.022865 26.50312 0 0 25.91257 0 1.022865 26.50312 72.24409 0 25.91257 72.24409 14.96063 0 0 14.96063 0 72.24409 0 25.91257 0 14.96063 0 72.24409 1.022865 26.50312 72.24409 0 25.91257 72.24409 15.98349 0.5905512 72.24409 1.022865 26.50312 0 15.98349 0.5905512 72.24409 15.98349 0.5905512 0 1.022865 26.50312 72.24409 1.022865 26.50312 0 14.96063 0 0 0 25.91257 0 15.98349 0.5905512 0</float_array>
                    <technique_common>
                        <accessor count="20" source="#ID59" stride="3">
                            <param name="X" type="float"/>
                            <param name="Y" type="float"/>
                            <param name="Z" type="float"/>
                        </accessor>
                    </technique_common>
                </source>
                <source id="ID57">
                    <float_array id="ID60" count="60">-0.5 0.8660254 0 -0.5 0.8660254 0 -0.5 0.8660254 0 -0.5 0.8660254 0 -0.8660254 -0.5 0 -0.8660254 -0.5 0 -0.8660254 -0.5 0 -0.8660254 -0.5 0 0 0 1 0 0 1 0 0 1 0 0 1 0.8660254 0.5 0 0.8660254 0.5 0 0.8660254 0.5 0 0.8660254 0.5 0 0 0 -1 0 0 -1 0 0 -1 0 0 -1</float_array>
                    <technique_common>
                        <accessor count="20" source="#ID60" stride="3">
                            <param name="X" type="float"/>
                            <param name="Y" type="float"/>
                            <param name="Z" type="float"/>
                        </accessor>
                    </technique_common>
                </source>
                <vertices id="ID58">
                    <input semantic="POSITION" source="#ID56"/>
                    <input semantic="NORMAL" source="#ID57"/>
                </vertices>
                <triangles count="10" material="Material2">
                    <input offset="0" semantic="VERTEX" source="#ID58"/>
                    <p>0 1 2 1 0 3 4 5 6 5 4 7 8 9 10 9 8 11 12 13 14 13 12 15 16 17 18 17 16 19</p>
                </triangles>
            </mesh>
        </geometry>
        <geometry id="ID62">
            <mesh>
                <source id="ID63">
                    <float_array id="ID66" count="72">4.95598 0 0.1341503 2.918035 0 0.1341503 3.937008 0 0 1.968504 0 0.527459 5.905512 0 0.527459 1.153123 0 1.153123 6.720893 0 1.153123 0.527459 0 1.968504 7.346557 0 1.968504 0.1341503 0 2.918035 7.739865 0 2.918035 0 0 3.937008 7.874016 0 3.937008 0.1341503 0 4.95598 7.739865 0 4.95598 0.527459 0 5.905512 7.346557 0 5.905512 1.153123 0 6.720893 6.720893 0 6.720893 1.968504 0 7.346557 5.905512 0 7.346557 2.918035 0 7.739865 4.95598 0 7.739865 3.937008 0 7.874016</float_array>
                    <technique_common>
                        <accessor count="24" source="#ID66" stride="3">
                            <param name="X" type="float"/>
                            <param name="Y" type="float"/>
                            <param name="Z" type="float"/>
                        </accessor>
                    </technique_common>
                </source>
                <source id="ID64">
                    <float_array id="ID67" count="72">0 -1 0 0 -1 0 0 -1 0 0 -1 0 0 -1 0 0 -1 0 0 -1 0 0 -1 0 0 -1 0 0 -1 0 0 -1 0 0 -1 0 0 -1 0 0 -1 0 0 -1 0 0 -1 0 0 -1 0 0 -1 0 0 -1 0 0 -1 0 0 -1 0 0 -1 0 0 -1 0 0 -1 0</float_array>
                    <technique_common>
                        <accessor count="24" source="#ID67" stride="3">
                            <param name="X" type="float"/>
                            <param name="Y" type="float"/>
                            <param name="Z" type="float"/>
                        </accessor>
                    </technique_common>
                </source>
                <vertices id="ID65">
                    <input semantic="POSITION" source="#ID63"/>
                    <input semantic="NORMAL" source="#ID64"/>
                </vertices>
                <triangles count="22" material="Material2">
                    <input offset="0" semantic="VERTEX" source="#ID65"/>
                    <p>0 1 2 1 0 3 3 0 4 3 4 5 5 4 6 5 6 7 7 6 8 7 8 9 9 8 10 9 10 11 11 10 12 11 12 13 13 12 14 13 14 15 15 14 16 15 16 17 17 16 18 17 18 19 19 18 20 19 20 21 21 20 22 21 22 23</p>
                </triangles>
            </mesh>
        </geometry>
        <geometry id="ID69">
            <mesh>
                <source id="ID70">
                    <float_array id="ID73" count="24">31.88976 43.70079 0 31.88976 0 81.88976 31.88976 0 0 31.88976 43.70079 81.88976 31.88976 0 81.88976 0 0 0 31.88976 0 0 0 0 81.88976</float_array>
                    <technique_common>
                        <accessor count="8" source="#ID73" stride="3">
                            <param name="X" type="float"/>
                            <param name="Y" type="float"/>
                            <param name="Z" type="float"/>
                        </accessor>
                    </technique_common>
                </source>
                <source id="ID71">
                    <float_array id="ID74" count="24">1 0 0 1 0 0 1 0 0 1 0 0 0 -1 0 0 -1 0 0 -1 0 0 -1 0</float_array>
                    <technique_common>
                        <accessor count="8" source="#ID74" stride="3">
                            <param name="X" type="float"/>
                            <param name="Y" type="float"/>
                            <param name="Z" type="float"/>
                        </accessor>
                    </technique_common>
                </source>
                <vertices id="ID72">
                    <input semantic="POSITION" source="#ID70"/>
                    <input semantic="NORMAL" source="#ID71"/>
                </vertices>
                <triangles count="4" material="Material2">
                    <input offset="0" semantic="VERTEX" source="#ID72"/>
                    <p>0 1 2 1 0 3 4 5 6 5 4 7</p>
                </triangles>
            </mesh>
        </geometry>
        <geometry id="ID75">
            <mesh>
                <source id="ID76">
                    <float_array id="ID79" count="738">100.3937 189.7638 0 2.842171e-14 0 0 2.842171e-14 189.7638 0 62.99213 51.1811 0 100.3937 51.1811 0 100.3937 111.811 0 62.99213 0 0 62.99213 45.27559 0 62.99213 14.17323 0 62.99213 0 64.17323 2.842171e-14 0 0 62.99213 0 0 2.842171e-14 0 64.17323 169.2913 0 0 2.842171e-14 0 -19.68504 169.2913 0 -19.68504 93.89764 0 0 63.77953 0 0 2.842171e-14 175.5906 81.88976 2.842171e-14 69.09449 64.37008 2.842171e-14 17.32283 81.88976 2.842171e-14 127.5591 64.37008 2.842171e-14 127.5591 35.43307 2.842171e-14 0 0 2.842171e-14 0 64.17323 2.842171e-14 69.09449 35.43307 2.842171e-14 189.7638 0 2.842171e-14 189.7638 64.17323 2.842171e-14 189.7638 64.17323 100.3937 189.7638 0 2.842171e-14 189.7638 0 100.3937 189.7638 64.17323 100.3937 189.7638 0 100.3937 111.811 81.88976 100.3937 111.811 0 100.3937 175.5906 81.88976 100.3937 189.7638 64.17323 179.1339 189.7638 0 125.9843 51.1811 0 155.9055 51.1811 0 179.1339 51.1811 0 100.3937 51.1811 81.88976 100.3937 51.1811 0 100.3937 51.1811 81.88976 62.99213 51.1811 0 100.3937 51.1811 0 62.99213 51.1811 81.88976 63.77953 0 0 93.89764 0 0 169.2913 0 0 225.5906 0 0 225.5906 51.1811 0 225.5906 45.27559 0 225.5906 9.055118 0 62.99213 51.1811 0 62.99213 45.27559 73.62205 62.99213 45.27559 0 62.99213 14.17323 0 62.99213 0 64.17323 62.99213 0 0 62.99213 14.17323 73.62205 62.99213 17.32283 81.88976 62.99213 51.1811 81.88976 169.2913 0 64.17323 93.89764 0 59.05512 63.77953 0 59.05512 62.99213 0 64.17323 2.842171e-14 17.32283 81.88976 2.842171e-14 0 64.17323 62.99213 17.32283 81.88976 62.99213 0 64.17323 2.842171e-14 -185.0394 64.17323 2.842171e-14 0 64.17323 169.2913 -185.0394 64.17323 169.2913 0 64.17323 2.842171e-14 -185.0394 64.17323 2.842171e-14 0 -19.68504 2.842171e-14 -185.0394 -19.68504 169.2913 -185.0394 -19.68504 2.842171e-14 0 -19.68504 2.842171e-14 -185.0394 -19.68504 169.2913 0 -19.68504 169.2913 0 64.17323 169.2913 -185.0394 -19.68504 169.2913 -185.0394 64.17323 169.2913 0 -19.68504 169.2913 0 0 62.99213 17.32283 81.88976 2.842171e-14 175.5906 81.88976 2.842171e-14 17.32283 81.88976 62.99213 51.1811 81.88976 100.3937 175.5906 81.88976 100.3937 51.1811 81.88976 100.3937 111.811 81.88976 2.842171e-14 189.7638 64.17323 100.3937 175.5906 81.88976 100.3937 189.7638 64.17323 2.842171e-14 175.5906 81.88976 100.3937 189.7638 64.17323 179.1339 189.7638 0 100.3937 189.7638 0 179.1339 189.7638 64.17323 125.9843 51.1811 81.88976 100.3937 111.811 81.88976 100.3937 51.1811 81.88976 100.3937 175.5906 81.88976 179.1339 175.5906 81.88976 179.1339 51.1811 81.88976 100.3937 175.5906 81.88976 179.1339 189.7638 64.17323 100.3937 189.7638 64.17323 179.1339 180 76.37795 179.1339 175.5906 81.88976 179.1339 189.7638 -5.511811 179.1339 51.1811 0 179.1339 51.1811 -5.511811 179.1339 189.7638 0 179.1339 51.1811 76.37795 179.1339 180 76.37795 179.1339 189.7638 64.17323 179.1339 51.1811 76.37795 155.9055 51.1811 0 179.1339 51.1811 0 155.9055 51.1811 72.44094 125.9843 51.1811 72.44094 125.9843 51.1811 81.88976 179.1339 51.1811 81.88976 125.9843 51.1811 0 169.2913 17.32283 81.88976 62.99213 51.1811 81.88976 62.99213 17.32283 81.88976 100.3937 51.1811 81.88976 125.9843 51.1811 81.88976 179.1339 51.1811 81.88976 225.5906 17.32283 81.88976 225.5906 51.1811 81.88976 225.5906 0 81.88976 225.5906 0 0 169.2913 0 81.88976 225.5906 51.1811 76.37795 225.5906 51.1811 0 179.1339 51.1811 -5.511811 225.5906 51.1811 -5.511811 225.5906 51.1811 -5.511811 225.5906 0 0 225.5906 0 -5.511811 225.5906 9.055118 0 225.5906 45.27559 0 225.5906 51.1811 0 225.5906 45.27559 76.37795 225.5906 0 81.88976 225.5906 9.055118 76.37795 225.5906 17.32283 81.88976 225.5906 51.1811 81.88976 225.5906 51.1811 76.37795 169.2913 17.32283 81.88976 62.99213 0 64.17323 169.2913 0 64.17323 62.99213 17.32283 81.88976 63.77953 0 0 64.75987 -1.232454 59.05512 64.75987 -1.232454 0 63.77953 0 59.05512 2.842171e-14 -185.0394 64.17323 169.2913 -185.0394 -19.68504 2.842171e-14 -185.0394 -19.68504 169.2913 -185.0394 64.17323 179.1339 189.7638 0 339.9606 189.7638 -5.511811 179.1339 189.7638 -5.511811 339.9606 189.7638 64.17323 179.1339 189.7638 64.17323 179.1339 51.1811 81.88976 179.1339 175.5906 81.88976 179.1339 180 76.37795 339.9606 189.7638 64.17323 179.1339 189.7638 64.17323 339.9606 180 76.37795 339.9606 189.7638 -5.511811 179.1339 51.1811 -5.511811 179.1339 189.7638 -5.511811 225.5906 51.1811 -5.511811 308.2677 51.1811 -5.511811 337.5984 51.1811 -5.511811 339.9606 51.1811 -5.511811 225.5906 51.1811 76.37795 179.1339 180 76.37795 179.1339 51.1811 76.37795 339.9606 180 76.37795 339.9606 51.1811 76.37795 225.5906 51.1811 81.88976 417.5197 0 81.88976 225.5906 17.32283 81.88976 225.5906 0 81.88976 225.5906 51.1811 81.88976 417.5197 51.1811 81.88976 225.5906 0 81.88976 169.2913 17.32283 81.88976 169.2913 0 81.88976 225.5906 17.32283 81.88976 417.5197 0 81.88976 225.5906 0 -5.511811 417.5197 0 -5.511811 169.2913 17.32283 81.88976 169.2913 0 81.88976 169.2913 0 64.17323 339.9606 51.1811 76.37795 337.5984 51.1811 -5.511811 339.9606 51.1811 -5.511811 337.5984 51.1811 65.74803 308.2677 51.1811 65.74803 308.2677 51.1811 -5.511811 225.5906 0 -5.511811 417.5197 0 -5.511811 342.3228 51.1811 -5.511811 372.2441 51.1811 -5.511811 391.1417 51.1811 -5.511811 417.5197 51.1811 -5.511811 417.5197 40.35433 -5.511811 417.5197 10.82677 -5.511811 417.5197 51.1811 81.88976 391.1417 51.1811 71.65354 417.5197 51.1811 71.65354 372.2441 51.1811 71.65354 342.3228 51.1811 71.65354 339.9606 51.1811 76.37795 225.5906 51.1811 76.37795 225.5906 51.1811 81.88976 339.9606 51.1811 -5.511811 342.3228 51.1811 -5.511811 372.2441 51.1811 -5.511811 391.1417 51.1811 -5.511811 339.9606 189.7638 -5.511811 339.9606 51.1811 76.37795 339.9606 51.1811 -5.511811 339.9606 180 76.37795 339.9606 189.7638 64.17323 417.5197 51.1811 -5.511811 417.5197 40.35433 65.35433 417.5197 40.35433 -5.511811 417.5197 10.82677 -5.511811 417.5197 0 81.88976 417.5197 0 -5.511811 417.5197 10.82677 65.35433 417.5197 51.1811 81.88976 417.5197 51.1811 71.65354</float_array>
                    <technique_common>
                        <accessor count="246" source="#ID79" stride="3">
                            <param name="X" type="float"/>
                            <param name="Y" type="float"/>
                            <param name="Z" type="float"/>
                        </accessor>
                    </technique_common>
                </source>
                <source id="ID77">
                    <float_array id="ID80" count="738">0 0 -1 0 0 -1 0 0 -1 0 0 -1 0 0 -1 0 0 -1 0 0 -1 0 0 -1 0 0 -1 0 -1 0 0 -1 0 0 -1 0 0 -1 0 0 -1 0 0 -1 0 0 -1 0 0 -1 0 0 -1 0 -1 0 0 -1 0 0 -1 0 0 -1 0 0 -1 0 0 -1 0 0 -1 0 0 -1 0 0 -1 0 0 -1 0 0 -0 1 -0 -0 1 -0 -0 1 -0 -0 1 -0 1 -0 -0 1 -0 -0 1 -0 -0 1 -0 -0 1 -0 -0 0 0 -1 0 0 -1 0 0 -1 0 0 -1 1 -0 -0 1 -0 -0 0 -1 0 0 -1 0 0 -1 0 0 -1 0 0 0 -1 0 0 -1 0 0 -1 0 0 -1 0 0 -1 0 0 -1 0 0 -1 1 -1.736645e-31 4.021335e-32 1 -1.736645e-31 4.021335e-32 1 -1.736645e-31 4.021335e-32 1 -1.736645e-31 4.021335e-32 1 -1.736645e-31 4.021335e-32 1 -1.736645e-31 4.021335e-32 1 -1.736645e-31 4.021335e-32 1 -1.736645e-31 4.021335e-32 1 -1.736645e-31 4.021335e-32 0 -1 0 0 -1 0 0 -1 0 -2.403639e-16 -0.7150067 0.6991176 -2.403639e-16 -0.7150067 0.6991176 -2.403639e-16 -0.7150067 0.6991176 -2.403639e-16 -0.7150067 0.6991176 1.589943e-16 3.18016e-17 -1 1.589943e-16 3.18016e-17 -1 1.589943e-16 3.18016e-17 -1 1.589943e-16 3.18016e-17 -1 1.589943e-16 3.18016e-17 -1 -1 0 0 -1 0 0 -1 0 0 -0 -0 1 -0 -0 1 -0 -0 1 -0 -0 1 -1 0 0 -1 0 0 -1 0 0 -1 0 0 -1 0 0 -2.445249e-16 4.65362e-17 1 -2.445249e-16 4.65362e-17 1 -2.445249e-16 4.65362e-17 1 -2.445249e-16 4.65362e-17 1 -2.445249e-16 4.65362e-17 1 -2.445249e-16 4.65362e-17 1 -2.445249e-16 4.65362e-17 1 -0 0.7808688 0.624695 -0 0.7808688 0.624695 -0 0.7808688 0.624695 -0 0.7808688 0.624695 3.609557e-16 1 -4.428904e-16 3.609557e-16 1 -4.428904e-16 3.609557e-16 1 -4.428904e-16 3.609557e-16 1 -4.428904e-16 2.84763e-17 1.103277e-16 1 2.84763e-17 1.103277e-16 1 2.84763e-17 1.103277e-16 1 2.84763e-17 1.103277e-16 1 2.84763e-17 1.103277e-16 1 2.84763e-17 1.103277e-16 1 -0 0.7808688 0.624695 -0 0.7808688 0.624695 -0 0.7808688 0.624695 -0 0.7808688 0.624695 -0 0.7808688 0.624695 1 -0 -0 1 -0 -0 1 -0 -0 1 -0 -0 1 -0 -0 1 -0 -0 1 -0 -0 0 -1 0 0 -1 0 0 -1 0 0 -1 0 0 -1 0 0 -1 0 0 -1 0 0 -1 0 1.593827e-33 -4.197159e-16 1 1.593827e-33 -4.197159e-16 1 1.593827e-33 -4.197159e-16 1 1.593827e-33 -4.197159e-16 1 1.593827e-33 -4.197159e-16 1 1.593827e-33 -4.197159e-16 1 1.593827e-33 -4.197159e-16 1 1.593827e-33 -4.197159e-16 1 0 -1 0 0 -1 0 0 -1 0 0 -1 0 0 -1 0 0 -1 0 0 -1 0 1 -0 -0 1 -0 -0 1 -0 -0 1 -0 -0 1 -0 -0 1 -0 -0 1 -0 -0 1 -0 -0 1 -0 -0 1 -0 -0 1 -0 -0 1 -0 -0 0 -0.7150067 0.6991176 0 -0.7150067 0.6991176 0 -0.7150067 0.6991176 0 -0.7150067 0.6991176 0.7826082 0.6225146 -0 0.7826082 0.6225146 -0 0.7826082 0.6225146 -0 0.7826082 0.6225146 -0 1.119243e-16 1 -1.742695e-16 1.119243e-16 1 -1.742695e-16 1.119243e-16 1 -1.742695e-16 1.119243e-16 1 -1.742695e-16 -8.334357e-18 1 -8.319112e-16 -8.334357e-18 1 -8.319112e-16 -8.334357e-18 1 -8.319112e-16 -8.334357e-18 1 -8.319112e-16 -8.334357e-18 1 -8.319112e-16 1 -0 -0 1 -0 -0 -1.92758e-17 0.7808688 0.624695 -1.92758e-17 0.7808688 0.624695 -1.92758e-17 0.7808688 0.624695 -1.92758e-17 0.7808688 0.624695 0 0 -1 0 0 -1 0 0 -1 0 0 -1 0 0 -1 0 0 -1 0 0 -1 -0 -0 1 -0 -0 1 -0 -0 1 -0 -0 1 -0 -0 1 0 -1 0 2.68511e-17 -1.511505e-16 1 2.68511e-17 -1.511505e-16 1 2.68511e-17 -1.511505e-16 1 2.68511e-17 -1.511505e-16 1 2.68511e-17 -1.511505e-16 1 -0 -0 1 -0 -0 1 -0 -0 1 -0 -0 1 0 -1 0 0 -1 0 0 -1 0 1 -0 -0 1 -0 -0 1 -0 -0 0 -1 0 0 -1 0 0 -1 0 0 -1 0 0 -1 0 0 -1 0 0 0 -1 0 0 -1 0 0 -1 0 0 -1 0 0 -1 0 0 -1 0 0 -1 0 0 -1 2.614764e-17 -1 3.484428e-17 2.614764e-17 -1 3.484428e-17 2.614764e-17 -1 3.484428e-17 2.614764e-17 -1 3.484428e-17 2.614764e-17 -1 3.484428e-17 2.614764e-17 -1 3.484428e-17 2.614764e-17 -1 3.484428e-17 2.614764e-17 -1 3.484428e-17 2.614764e-17 -1 3.484428e-17 2.614764e-17 -1 3.484428e-17 2.614764e-17 -1 3.484428e-17 2.614764e-17 -1 3.484428e-17 1 1.392854e-16 1.537879e-16 1 1.392854e-16 1.537879e-16 1 1.392854e-16 1.537879e-16 1 1.392854e-16 1.537879e-16 1 1.392854e-16 1.537879e-16 1 -1.554881e-16 3.626082e-16 1 -1.554881e-16 3.626082e-16 1 -1.554881e-16 3.626082e-16 1 -1.554881e-16 3.626082e-16 1 -1.554881e-16 3.626082e-16 1 -1.554881e-16 3.626082e-16 1 -1.554881e-16 3.626082e-16 1 -1.554881e-16 3.626082e-16 1 -1.554881e-16 3.626082e-16</float_array>
                    <technique_common>
                        <accessor count="246" source="#ID80" stride="3">
                            <param name="X" type="float"/>
                            <param name="Y" type="float"/>
                            <param name="Z" type="float"/>
                        </accessor>
                    </technique_common>
                </source>
                <vertices id="ID78">
                    <input semantic="POSITION" source="#ID76"/>
                    <input semantic="NORMAL" source="#ID77"/>
                </vertices>
                <triangles count="200" material="Material2">
                    <input offset="0" semantic="VERTEX" source="#ID78"/>
                    <p>0 1 2 1 0 3 3 0 4 4 0 5 3 6 1 6 3 7 6 7 8 9 10 11 10 9 12 13 14 15 14 13 10 10 13 16 10 16 17 10 17 11 18 19 20 19 18 21 21 18 22 20 23 24 23 20 25 23 25 26 25 20 19 26 25 22 26 22 18 26 18 27 28 29 30 29 28 31 32 33 34 33 32 35 35 32 36 37 5 0 5 37 4 4 37 38 38 37 39 39 37 40 34 41 42 41 34 33 43 44 45 44 43 46 4 7 3 7 4 8 8 4 6 6 4 47 47 4 48 48 4 49 49 4 38 49 38 39 49 39 40 49 40 50 50 40 51 50 51 52 50 52 53 54 55 56 57 58 59 58 57 60 58 60 61 61 60 55 61 55 62 62 55 54 63 16 13 16 63 64 64 63 65 65 11 17 11 65 9 9 65 63 66 67 68 67 66 69 70 71 72 71 70 73 73 70 74 75 76 77 76 75 24 76 24 23 78 79 80 79 78 81 82 83 84 83 82 85 85 82 86 87 88 89 88 87 90 88 90 91 91 90 92 91 92 93 94 95 96 95 94 97 98 99 100 99 98 101 102 103 104 103 102 105 105 102 106 106 102 107 108 109 110 109 108 111 111 108 112 113 114 115 114 113 116 116 117 114 117 116 118 118 116 119 120 121 122 121 120 123 123 120 124 124 120 125 125 120 126 124 45 127 45 124 43 43 124 125 128 129 130 129 128 131 131 128 132 132 128 133 133 128 134 133 134 135 136 13 137 13 136 63 63 136 138 139 122 140 122 139 120 140 141 142 141 140 122 143 144 145 144 143 146 146 143 147 147 143 148 148 149 147 146 150 144 150 146 151 150 151 152 152 151 149 152 149 153 153 149 148 153 148 154 155 156 157 156 155 158 159 160 161 160 159 162 163 164 165 164 163 166 167 168 169 168 167 170 170 167 171 118 172 117 172 118 173 174 175 176 175 174 177 178 179 180 179 178 181 181 178 182 182 178 183 183 178 184 185 186 187 186 185 188 188 185 189 190 120 139 120 190 126 191 192 193 192 191 194 194 191 195 196 197 198 197 196 199 200 201 202 201 200 137 137 200 136 203 204 205 206 207 208 207 206 209 209 206 210 210 142 211 142 210 140 140 210 139 139 210 206 182 212 181 212 182 213 213 182 183 213 183 184 213 184 214 213 214 215 213 215 216 213 216 217 213 217 218 213 218 219 220 221 222 221 220 223 223 220 224 224 220 225 225 220 226 226 220 227 224 228 229 228 224 225 221 230 231 230 221 223 232 233 234 233 232 235 235 232 236 237 238 239 240 241 242 241 240 243 241 243 244 244 243 238 244 238 245 245 238 237</p>
                </triangles>
            </mesh>
        </geometry>
        <geometry id="ID81">
            <mesh>
                <source id="ID82">
                    <float_array id="ID85" count="12">2.842171e-14 127.5591 64.37008 2.842171e-14 69.09449 35.43307 2.842171e-14 69.09449 64.37008 2.842171e-14 127.5591 35.43307</float_array>
                    <technique_common>
                        <accessor count="4" source="#ID85" stride="3">
                            <param name="X" type="float"/>
                            <param name="Y" type="float"/>
                            <param name="Z" type="float"/>
                        </accessor>
                    </technique_common>
                </source>
                <source id="ID83">
                    <float_array id="ID86" count="12">-1 0 0 -1 0 0 -1 0 0 -1 0 0</float_array>
                    <technique_common>
                        <accessor count="4" source="#ID86" stride="3">
                            <param name="X" type="float"/>
                            <param name="Y" type="float"/>
                            <param name="Z" type="float"/>
                        </accessor>
                    </technique_common>
                </source>
                <vertices id="ID84">
                    <input semantic="POSITION" source="#ID82"/>
                    <input semantic="NORMAL" source="#ID83"/>
                </vertices>
                <triangles count="2" material="Material2">
                    <input offset="0" semantic="VERTEX" source="#ID84"/>
                    <p>0 1 2 1 0 3</p>
                </triangles>
            </mesh>
        </geometry>
        <geometry id="ID87">
            <mesh>
                <source id="ID88">
                    <float_array id="ID90" count="6">62.82478 15.73911 0 62.99213 14.17323 0</float_array>
                    <technique_common>
                        <accessor count="2" source="#ID90" stride="3">
                            <param name="X" type="float"/>
                            <param name="Y" type="float"/>
                            <param name="Z" type="float"/>
                        </accessor>
                    </technique_common>
                </source>
                <vertices id="ID89">
                    <input semantic="POSITION" source="#ID88"/>
                </vertices>
                <lines count="1" material="Material2">
                    <input offset="0" semantic="VERTEX" source="#ID89"/>
                    <p>1 0</p>
                </lines>
            </mesh>
        </geometry>
    </library_geometries>
    <library_materials>
        <material id="ID6" name="material">
            <instance_effect url="#ID5"/>
        </material>
        <material id="ID42" name="edge_color000255">
            <instance_effect url="#ID43"/>
        </material>
    </library_materials>
    <library_effects>
        <effect id="ID5">
            <profile_COMMON>
                <technique sid="COMMON">
                    <lambert>
                        <diffuse>
                            <color>1 1 1 1</color>
                        </diffuse>
                    </lambert>
                </technique>
            </profile_COMMON>
        </effect>
        <effect id="ID43">
            <profile_COMMON>
                <technique sid="COMMON">
                    <constant>
                        <transparent opaque="A_ONE">
                            <color>0 0 0 1</color>
                        </transparent>
                        <transparency>
                            <float>1</float>
                        </transparency>
                    </constant>
                </technique>
            </profile_COMMON>
        </effect>
    </library_effects>
    <scene>
        <instance_visual_scene url="#ID2"/>
    </scene>
</COLLADA>
